#!OML:ASF H:\charlestonDancing\Project 1\Capture day 1\Session 1\femaleDancer.ASF
:FULLY-SPECIFIED
:DEGREES
143
root -11.5724 17.202 2.76451 214.671 -87.1292 -209.458
lowerback 25.7481 -0.0963026 3.13487
upperback 7.69054 -0.114603 -1.52768
thorax -5.74419 -0.314872 -3.41303
lowerneck 1.77709 1.08094 2.85672
upperneck -14.9351 0.811194 -4.3251
head -4.72468 0.375333 -1.83737
rclavicle -2.38542e-015 -1.46107e-014
rhumerus -29.117 0.998412 -82.2628
rradius 28.0334
rwrist 32.7942
rhand -27.3302 -34.0511
rfingers 7.12502
rthumb -0.73904 -64.0296
lclavicle -2.38542e-015 -1.46107e-014
lhumerus -33.8182 0.762768 78.8896
lradius 73.3466
lwrist -12.4373
lhand -29.3117 10.2869
lfingers 7.12502
lthumb -2.65274 40.2502
rfemur -38.837 -5.37824 18.8578
rtibia 74.0631
rfoot -1.45977 11.4267
rtoes -29.6023
lfemur -30.081 -1.80535 -27.2838
ltibia 46.65
lfoot -10.8701 -9.59594
ltoes -9.19885
144
root -11.5779 17.1513 2.78035 236.609 -86.6278 -232.134
lowerback 26.5269 -0.425685 1.47493
upperback 7.87174 -1.0199 -2.02867
thorax -5.9953 -0.764964 -2.73229
lowerneck 1.94994 1.30594 2.96038
upperneck -15.2589 1.1617 -3.98176
head -4.84284 0.521076 -1.76803
rclavicle -1.10325e-014 -3.37934e-015
rhumerus -32.7751 0.495459 -82.3267
rradius 27.5414
rwrist 33.7565
rhand -28.6745 -34.2032
rfingers 7.12502
rthumb -2.03737 -64.1732
lclavicle -1.10325e-014 -3.37934e-015
lhumerus -30.4749 0.0179086 78.0493
lradius 78.0765
lwrist -11.4891
lhand -30.1351 8.87888
lfingers 7.12502
lthumb -3.44794 38.8307
rfemur -41.6636 -5.79766 16.937
rtibia 78.5932
rfoot 0.858599 11.7917
rtoes -27.2562
lfemur -29.2474 -2.2138 -28.7748
ltibia 46.6119
lfoot -10.824 -9.58739
ltoes -10.372
145
root -11.584 17.1123 2.78677 259.755 -84.1604 -255.284
lowerback 26.6092 -0.563877 -1.78881
upperback 7.92323 -2.12894 -2.90867
thorax -5.98036 -1.30168 -1.47748
lowerneck 2.07434 1.57455 3.02209
upperneck -15.5796 1.54942 -3.77875
head -4.95041 0.693164 -1.73721
rclavicle -1.17283e-014 -1.2921e-014
rhumerus -36.1883 0.243001 -82.2584
rradius 27.1672
rwrist 34.9024
rhand -29.5648 -34.2162
rfingers 7.12502
rthumb -2.89716 -64.1763
lclavicle -1.17283e-014 -1.2921e-014
lhumerus -26.702 -0.739009 77.0793
lradius 82.1529
lwrist -11.0673
lhand -30.6935 7.73152
lfingers 7.12502
lthumb -3.98714 37.674
rfemur -45.3393 -6.80079 13.1122
rtibia 82.6148
rfoot 1.84501 11.4841
rtoes -27.0327
lfemur -28.9333 -2.65089 -32.1613
ltibia 46.1187
lfoot -10.2579 -9.86018
ltoes -10.273
146
root -11.5915 17.1387 2.79643 265.506 -83.9765 -261.515
lowerback 27.3283 -1.03969 -2.4588
upperback 8.09127 -2.98044 -3.08237
thorax -6.13537 -1.7211 -1.00512
lowerneck 2.02783 1.89036 3.06371
upperneck -15.678 1.97233 -3.80666
head -4.95693 0.89757 -1.77272
rclavicle 1.88845e-014 7.15625e-015
rhumerus -39.2168 0.387751 -82.1541
rradius 27.1746
rwrist 35.1279
rhand -26.5744 -33.1963
rfingers 7.12502
rthumb -0.00906545 -63.176
lclavicle 1.88845e-014 7.15625e-015
lhumerus -22.6408 -1.2679 75.9499
lradius 85.5544
lwrist -11.5846
lhand -30.8711 7.68045
lfingers 7.12502
lthumb -4.15862 37.6196
rfemur -47.5791 -6.94572 12.4286
rtibia 85.1657
rfoot 1.42243 9.52735
rtoes -27.6761
lfemur -28.0283 -2.67049 -32.5789
ltibia 45.4777
lfoot -9.6181 -10.2226
ltoes -10.3815
147
root -11.5958 17.2038 2.81217 264.413 -85.0187 -260.664
lowerback 27.8136 -1.54683 -1.99532
upperback 8.23384 -3.52639 -2.95978
thorax -6.23211 -1.99067 -0.949085
lowerneck 1.9138 2.27531 3.28061
upperneck -15.7074 2.46256 -4.11928
head -4.92066 1.14236 -1.92656
rclavicle 2.70347e-014 5.96354e-015
rhumerus -41.8879 0.741542 -82.072
rradius 27.0633
rwrist 35.6758
rhand -27.921 -32.8785
rfingers 7.12502
rthumb -1.30963 -62.8542
lclavicle 2.70347e-014 5.96354e-015
lhumerus -18.558 -1.46816 74.626
lradius 88.3369
lwrist -12.9228
lhand -30.9567 7.54044
lfingers 7.12502
lthumb -4.2413 37.478
rfemur -49.7147 -6.15401 13.4484
rtibia 86.5523
rfoot 0.537118 6.80821
rtoes -27.2117
lfemur -27.4142 -2.57414 -31.462
ltibia 44.7494
lfoot -9.18005 -10.1444
ltoes -11.0707
